<?xml version="1.0" encoding="UTF-8"?><!DOCTYPE svg PUBLIC "-//W3C//DTD SVG 1.1//EN" "http://www.w3.org/Graphics/SVG/1.1/DTD/svg11.dtd"><svg xmlns="http://www.w3.org/2000/svg" xmlns:xlink="http://www.w3.org/1999/xlink"><defs/><symbol id="[unfilled] unit-test/figma default logo" viewBox="0 0 40 60">
<g id="figma default logo">
<path id="Vector" d="M20 30C20 24.4768 24.4768 20 30 20C35.5232 20 40 24.4768 40 30C40 35.5232 35.5232 40 30 40C24.4768 40 20 35.5232 20 30Z"/>
<path id="Vector_2" d="M0 50C0 44.4768 4.47684 40 10 40H20V50C20 55.5232 15.5232 60 10 60C4.47684 60 0 55.5232 0 50Z"/>
<path id="Vector_3" d="M20 0V20H30C35.5232 20 40 15.5232 40 10C40 4.47684 35.5232 0 30 0H20Z"/>
<path id="Vector_4" d="M0 10C0 15.5232 4.47684 20 10 20H20V0H10C4.47684 0 0 4.47684 0 10Z"/>
<path id="Vector_5" d="M0 30C0 35.5232 4.47684 40 10 40H20V20H10C4.47684 20 0 24.4768 0 30Z"/>
</g>
</symbol><symbol id="[unfilled] unit-test/figma/logo" viewBox="0 0 40 60">
<g id="figma/logo">
<path id="Vector" d="M20 30C20 24.4768 24.4768 20 30 20C35.5232 20 40 24.4768 40 30C40 35.5232 35.5232 40 30 40C24.4768 40 20 35.5232 20 30Z"/>
<path id="Vector_2" d="M0 50C0 44.4768 4.47684 40 10 40H20V50C20 55.5232 15.5232 60 10 60C4.47684 60 0 55.5232 0 50Z"/>
<path id="Vector_3" d="M20 0V20H30C35.5232 20 40 15.5232 40 10C40 4.47684 35.5232 0 30 0H20Z"/>
<path id="Vector_4" d="M0 10C0 15.5232 4.47684 20 10 20H20V0H10C4.47684 0 0 4.47684 0 10Z"/>
<path id="Vector_5" d="M0 30C0 35.5232 4.47684 40 10 40H20V20H10C4.47684 20 0 24.4768 0 30Z"/>
</g>
</symbol><symbol id="[unfilled] unit-test/figma/logo/main" viewBox="0 0 40 60">
<g id="figma/logo/main">
<path id="Vector" d="M20 30C20 24.4768 24.4768 20 30 20C35.5232 20 40 24.4768 40 30C40 35.5232 35.5232 40 30 40C24.4768 40 20 35.5232 20 30Z"/>
<path id="Vector_2" d="M0 50C0 44.4768 4.47684 40 10 40H20V50C20 55.5232 15.5232 60 10 60C4.47684 60 0 55.5232 0 50Z"/>
<path id="Vector_3" d="M20 0V20H30C35.5232 20 40 15.5232 40 10C40 4.47684 35.5232 0 30 0H20Z"/>
<path id="Vector_4" d="M0 10C0 15.5232 4.47684 20 10 20H20V0H10C4.47684 0 0 4.47684 0 10Z"/>
<path id="Vector_5" d="M0 30C0 35.5232 4.47684 40 10 40H20V20H10C4.47684 20 0 24.4768 0 30Z"/>
</g>
</symbol><symbol id="[unfilled] unit-test/figma/logo/main (bright)" viewBox="0 0 40 60">
<g id="figma/logo/main (bright)">
<path id="Vector" d="M20 30C20 24.4768 24.4768 20 30 20C35.5232 20 40 24.4768 40 30C40 35.5232 35.5232 40 30 40C24.4768 40 20 35.5232 20 30Z"/>
<path id="Vector_2" d="M0 50C0 44.4768 4.47684 40 10 40H20V50C20 55.5232 15.5232 60 10 60C4.47684 60 0 55.5232 0 50Z"/>
<path id="Vector_3" d="M20 0V20H30C35.5232 20 40 15.5232 40 10C40 4.47684 35.5232 0 30 0H20Z"/>
<path id="Vector_4" d="M0 10C0 15.5232 4.47684 20 10 20H20V0H10C4.47684 0 0 4.47684 0 10Z"/>
<path id="Vector_5" d="M0 30C0 35.5232 4.47684 40 10 40H20V20H10C4.47684 20 0 24.4768 0 30Z"/>
</g>
</symbol><symbol id="[unfilled] unit-test/Type=Icon only, Visible=No"/></svg>