<?xml version="1.0" encoding="UTF-8"?><!DOCTYPE svg PUBLIC "-//W3C//DTD SVG 1.1//EN" "http://www.w3.org/Graphics/SVG/1.1/DTD/svg11.dtd"><svg xmlns="http://www.w3.org/2000/svg" xmlns:xlink="http://www.w3.org/1999/xlink"><defs>
<linearGradient id="paint0_linear_101_0" x1="0" y1="4.23361" x2="40.4938" y2="4.23363" gradientUnits="userSpaceOnUse">
<stop stop-color="#F24E1E"/>
<stop offset="0.34375" stop-color="#B859FF"/>
<stop offset="0.677083" stop-color="#1ABCFE"/>
<stop offset="1" stop-color="#0ACF83"/>
</linearGradient>

<linearGradient id="paint0_linear_54_22" x1="28.2392" y1="8.56017" x2="28.2392" y2="53.262" gradientUnits="userSpaceOnUse">
<stop stop-color="#F24E1E"/>
<stop offset="0.357382" stop-color="#A259FF"/>
<stop offset="0.703125" stop-color="#1ABCFE"/>
<stop offset="1" stop-color="#0ACF83"/>
</linearGradient>
<linearGradient id="paint1_linear_54_22" x1="48" y1="5" x2="48" y2="25" gradientUnits="userSpaceOnUse">
<stop stop-color="#FF7262"/>
<stop offset="0.354167" stop-color="#A259FF"/>
<stop offset="0.682292" stop-color="#1ABCFE"/>
<stop offset="1" stop-color="#0ACF83"/>
</linearGradient>

<clipPath id="clip0_56_6">
<rect width="40" height="60" fill="white"/>
</clipPath>
</defs><symbol id="[unfilled] icons/figma-arrow" viewBox="0 0 41 8">
<g id="figma-arrow">
<path id="Arrow" d="M40.8517 4.08536C41.0494 3.88769 41.0494 3.5672 40.8517 3.36952L37.6305 0.148258C37.4328 -0.0494148 37.1123 -0.0494148 36.9146 0.148258C36.717 0.345931 36.717 0.666422 36.9146 0.864095L39.778 3.72744L36.9146 6.59079C36.717 6.78846 36.717 7.10895 36.9146 7.30662C37.1123 7.5043 37.4328 7.5043 37.6305 7.30662L40.8517 4.08536ZM0 4.23361H40.4938V3.22127H0V4.23361Z"/>
</g>

</symbol><symbol id="[unfilled] icons/figma-export" viewBox="0 0 60 60">
<g id="figma-export">
<path id="Container" d="M55.1568 39.7472C54.4274 39.7472 53.8353 40.3388 53.8353 41.0688V46.654C53.8332 48.8429 52.0594 50.6162 49.8705 50.6188H6.60796C4.41907 50.6162 2.64577 48.8429 2.64318 46.654V15.1681C2.64577 12.9792 4.41907 11.2059 6.60796 11.2034H15.7481C16.4781 11.2034 17.0697 10.6117 17.0697 9.88176C17.0697 9.15179 16.4781 8.56017 15.7481 8.56017H6.60796C2.96016 8.5643 0.00412998 11.5203 0 15.1681V46.654C0.00412998 50.3018 2.96016 53.2579 6.60796 53.262H49.8705C53.5183 53.2579 56.4743 50.3018 56.4784 46.654V41.0688C56.4784 40.3388 55.8868 39.7472 55.1568 39.7472Z"/>
<g id="figma-logo">
<path id="Vector" d="M20 31C20 29.4087 20.6321 27.8826 21.7574 26.7574C22.8826 25.6321 24.4087 25 26 25C27.5913 25 29.1174 25.6321 30.2426 26.7574C31.3679 27.8826 32 29.4087 32 31C32 32.5913 31.3679 34.1174 30.2426 35.2426C29.1174 36.3679 27.5913 37 26 37C24.4087 37 22.8826 36.3679 21.7574 35.2426C20.6321 34.1174 20 32.5913 20 31Z"/>
<path id="Vector_2" d="M8 43C8 41.4087 8.63214 39.8826 9.75736 38.7574C10.8826 37.6321 12.4087 37 14 37H20V43C20 44.5913 19.3679 46.1174 18.2426 47.2426C17.1174 48.3679 15.5913 49 14 49C12.4087 49 10.8826 48.3679 9.75736 47.2426C8.63214 46.1174 8 44.5913 8 43V43Z"/>
<path id="Vector_3" d="M20 13V25H26C27.5913 25 29.1174 24.3679 30.2426 23.2426C31.3679 22.1174 32 20.5913 32 19C32 17.4087 31.3679 15.8826 30.2426 14.7574C29.1174 13.6321 27.5913 13 26 13H20Z"/>
<path id="Vector_4" d="M8 19C8 20.5913 8.63214 22.1174 9.75736 23.2426C10.8826 24.3679 12.4087 25 14 25H20V13H14C12.4087 13 10.8826 13.6321 9.75736 14.7574C8.63214 15.8826 8 17.4087 8 19V19Z"/>
<path id="Vector_5" d="M8 31C8 32.5913 8.63214 34.1174 9.75736 35.2426C10.8826 36.3679 12.4087 37 14 37H20V25H14C12.4087 25 10.8826 25.6321 9.75736 26.7574C8.63214 27.8826 8 29.4087 8 31V31Z"/>
</g>
<path id="Arrow" d="M50.0352 5.23143C49.7989 5.005 49.4442 4.93761 49.1363 5.06091C48.8285 5.18422 48.6276 5.474 48.6276 5.79516V10.0379C44.1699 10.2087 41.9376 11.989 41.5965 12.285C39.3475 14.0632 37.812 16.5411 37.2542 19.2917C36.9754 20.6208 36.9254 21.9849 37.1069 23.3295L37.1075 23.3341C37.1092 23.3459 37.1111 23.3581 37.113 23.3699L37.2884 24.3411C37.3474 24.6681 37.6114 24.9256 37.9503 24.9865C38.2894 25.0474 38.6318 24.8986 38.8091 24.6138L39.3346 23.7699C40.9492 21.1836 42.9612 19.4691 45.3157 18.6743C46.3776 18.3124 47.5028 18.1537 48.6276 18.2065V22.6008C48.6276 22.9226 48.8291 23.213 49.138 23.3357C49.4471 23.4587 49.8024 23.3897 50.0381 23.1615L58.7598 14.7164C59.0812 14.4052 59.0799 13.9017 58.7569 13.592L50.0352 5.23143ZM50.2786 20.6739V17.4912C50.2786 17.1011 49.9846 16.7685 49.5845 16.7064C48.8784 16.5967 46.9953 16.4225 44.7699 17.1738C42.3958 17.9751 40.3418 19.552 38.6502 21.8691C38.6454 21.1078 38.7202 20.3478 38.8736 19.6008C39.3753 17.1573 40.6494 15.1049 42.6601 13.5013C42.6778 13.4874 42.6946 13.4728 42.7111 13.4572C42.7688 13.4057 44.865 11.5825 49.4465 11.6154H49.4526C49.9085 11.6154 50.2783 11.2591 50.2786 10.82V7.70811L57.0079 14.1585L50.2786 20.6739Z"/>
</g>

</symbol><symbol id="[unfilled] icons/figma-logo" viewBox="0 0 40 60">
<g id="figma-logo" clip-path="url(#clip0_56_6)">
<path id="Vector" d="M20 30C20 24.4768 24.4768 20 30 20C35.5232 20 40 24.4768 40 30C40 35.5232 35.5232 40 30 40C24.4768 40 20 35.5232 20 30Z"/>
<path id="Vector_2" d="M0 50C0 44.4768 4.47684 40 10 40H20V50C20 55.5232 15.5232 60 10 60C4.47684 60 0 55.5232 0 50Z"/>
<path id="Vector_3" d="M20 0V20H30C35.5232 20 40 15.5232 40 10C40 4.47684 35.5232 0 30 0H20Z"/>
<path id="Vector_4" d="M0 10C0 15.5232 4.47684 20 10 20H20V0H10C4.47684 0 0 4.47684 0 10Z"/>
<path id="Vector_5" d="M0 30C0 35.5232 4.47684 40 10 40H20V20H10C4.47684 20 0 24.4768 0 30Z"/>
</g>

</symbol></svg>