<?xml version="1.0" encoding="UTF-8"?><!DOCTYPE svg PUBLIC "-//W3C//DTD SVG 1.1//EN" "http://www.w3.org/Graphics/SVG/1.1/DTD/svg11.dtd"><svg xmlns="http://www.w3.org/2000/svg" xmlns:xlink="http://www.w3.org/1999/xlink"><defs><linearGradient id="a" x1="0" x2="40.494" y1="4.234" y2="4.234" gradientUnits="userSpaceOnUse"><stop stop-color="#F24E1E"/><stop offset=".344" stop-color="#B859FF"/><stop offset=".677" stop-color="#1ABCFE"/><stop offset="1" stop-color="#0ACF83"/></linearGradient><linearGradient id="a" x1="28.239" x2="28.239" y1="8.56" y2="53.262" gradientUnits="userSpaceOnUse"><stop stop-color="#F24E1E"/><stop offset=".357" stop-color="#A259FF"/><stop offset=".703" stop-color="#1ABCFE"/><stop offset="1" stop-color="#0ACF83"/></linearGradient><linearGradient id="b" x1="48" x2="48" y1="5" y2="25" gradientUnits="userSpaceOnUse"><stop stop-color="#FF7262"/><stop offset=".354" stop-color="#A259FF"/><stop offset=".682" stop-color="#1ABCFE"/><stop offset="1" stop-color="#0ACF83"/></linearGradient><clipPath id="a"><path fill="#fff" d="M0 0h40v60H0z"/></clipPath></defs><symbol id="icons/figma-arrow" viewBox="0 0 41 8"><path fill="url(#a)" d="M40.852 4.085a.506.506 0 0 0 0-.715L37.63.148a.506.506 0 0 0-.716.716l2.863 2.863-2.863 2.864a.506.506 0 0 0 .715.716zM0 4.234h40.494V3.22H0z"/></symbol><symbol id="icons/figma-export" viewBox="0 0 60 60"><path fill="url(#a)" d="M55.157 39.747c-.73 0-1.322.592-1.322 1.322v5.585a3.97 3.97 0 0 1-3.965 3.965H6.608a3.97 3.97 0 0 1-3.965-3.965V15.168a3.97 3.97 0 0 1 3.965-3.965h9.14a1.322 1.322 0 1 0 0-2.643h-9.14A6.615 6.615 0 0 0 0 15.168v31.486a6.615 6.615 0 0 0 6.608 6.608h43.263a6.615 6.615 0 0 0 6.607-6.608v-5.585c0-.73-.591-1.322-1.321-1.322"/><path fill="#1ABCFE" d="M20 31a6 6 0 1 1 12 0 6 6 0 0 1-12 0"/><path fill="#0ACF83" d="M8 43a6 6 0 0 1 6-6h6v6a6 6 0 1 1-12 0"/><path fill="#FF7262" d="M20 13v12h6a6 6 0 1 0 0-12z"/><path fill="#F24E1E" d="M8 19a6 6 0 0 0 6 6h6V13h-6a6 6 0 0 0-6 6"/><path fill="#A259FF" d="M8 31a6 6 0 0 0 6 6h6V25h-6a6 6 0 0 0-6 6"/><path fill="url(#b)" d="M50.035 5.231a.85.85 0 0 0-.899-.17.8.8 0 0 0-.508.734v4.243c-4.458.17-6.69 1.951-7.032 2.247-2.248 1.778-3.784 4.256-4.342 7.007a11.9 11.9 0 0 0-.147 4.037v.005l.006.036.175.971a.81.81 0 0 0 .662.645c.34.061.682-.087.86-.372l.525-.844c1.614-2.586 3.626-4.3 5.98-5.096a9 9 0 0 1 3.313-.468v4.395c0 .322.201.612.51.735.31.123.664.054.9-.174l8.722-8.446a.775.775 0 0 0-.003-1.124zm.244 15.443V17.49a.805.805 0 0 0-.695-.785c-.706-.11-2.589-.284-4.814.468-2.374.801-4.428 2.378-6.12 4.695-.005-.761.07-1.521.224-2.268.501-2.444 1.775-4.496 3.786-6.1l.051-.044c.058-.051 2.154-1.875 6.736-1.842h.006c.455 0 .825-.356.826-.795V7.708l6.729 6.45z"/></symbol><symbol id="icons/figma-logo" viewBox="0 0 40 60"><g clip-path="url(#a)"><path fill="#1ABCFE" d="M20 30c0-5.523 4.477-10 10-10s10 4.477 10 10-4.477 10-10 10-10-4.477-10-10"/><path fill="#0ACF83" d="M0 50c0-5.523 4.477-10 10-10h10v10c0 5.523-4.477 10-10 10S0 55.523 0 50"/><path fill="#FF7262" d="M20 0v20h10c5.523 0 10-4.477 10-10S35.523 0 30 0z"/><path fill="#F24E1E" d="M0 10c0 5.523 4.477 10 10 10h10V0H10C4.477 0 0 4.477 0 10"/><path fill="#A259FF" d="M0 30c0 5.523 4.477 10 10 10h10V20H10C4.477 20 0 24.477 0 30"/></g></symbol></svg>